<?xml version="1.0" encoding="UTF-8" standalone="no"?>
<svg
   xmlns:dc="http://purl.org/dc/elements/1.1/"
   xmlns:cc="http://creativecommons.org/ns#"
   xmlns:rdf="http://www.w3.org/1999/02/22-rdf-syntax-ns#"
   xmlns:svg="http://www.w3.org/2000/svg"
   xmlns="http://www.w3.org/2000/svg"
   id="svg4754"
   version="1.1"
   fill="none"
   viewBox="0 0 217 120"
>
  <metadata
     id="metadata4760">
    <rdf:RDF>
      <cc:Work
         rdf:about="">
        <dc:format>image/svg+xml</dc:format>
        <dc:type
           rdf:resource="http://purl.org/dc/dcmitype/StillImage" />
        <dc:title></dc:title>
      </cc:Work>
    </rdf:RDF>
  </metadata>
  <defs
     id="defs4758" />
<style> 
#Cup {
  fill="#E1E1E1";
}

</style>
  <path
     id="Cup"
     class="cup"
     d="M89.1152 66.1596C89.0536 65.5694 89.5164 65.0558 90.1098 65.0558H127.89C128.484 65.0558 128.946 65.5694 128.885 66.1596L123.46 118.16C123.407 118.669 122.977 119.056 122.465 119.056H95.5349C95.0228 119.056 94.5934 118.669 94.5403 118.16L89.1152 66.1596Z" />
  <g
     id="CupCover">
    <path
       style="fill:#ffffff"
       d="m 91.8526,59.325 c -0.663,0.6195 -0.2247,1.7308 0.6827,1.7308 h 32.9297 c 0.907,0 1.345,-1.1113 0.682,-1.7307 l -3.211,-3 c -0.185,-0.1731 -0.429,-0.2693 -0.683,-0.2693 H 95.7465 c -0.2534,0 -0.4974,0.0962 -0.6826,0.2693 z"
       id="path4700" />
    <path
       style="fill:#ffffff"
       d="m 87.2065,65.8824 c -0.1077,0.6123 0.3633,1.1734 0.9849,1.1734 h 41.5466 c 0.645,0 1.121,-0.6009 0.974,-1.2285 l -0.704,-3 c -0.106,-0.452 -0.51,-0.7715 -0.974,-0.7715 H 88.7194 c -0.4854,0 -0.9008,0.3486 -0.9849,0.8267 z"
       id="path4702" />
    <rect
       style="fill:#ffffff"
       x="89"
       y="60.055801"
       width="40"
       height="3"
       rx="1"
       id="rect4704" />
  </g>
  <path
     style="display:inline;fill:#000000;stroke-width:0.72667432"
     id="Light2"
     d="m 116.007,34.9445 h -15.724 c -2.2024,0 -3.9881,0.941523 -3.9881,2.102876 v 0.794248 c 0,1.161353 1.7857,2.102876 3.9881,2.102876 h 15.724 c 2.203,0 3.989,-0.941523 3.989,-2.102876 v -0.794248 c 0,-1.161353 -1.786,-2.102876 -3.989,-2.102876 z" />
  <path
     style="display:inline;opacity:0.2;fill:#0d262b;stroke-width:0.72667432"
     id="Light1"
     d="m 116.007,34.9445 h -15.724 c -2.2024,0 -3.9881,0.941522 -3.9881,2.102876 v 0.794248 c 0,1.161353 1.7857,2.102876 3.9881,2.102876 h 15.724 c 2.203,0 3.989,-0.941523 3.989,-2.102876 v -0.794248 c 0,-1.161354 -1.786,-2.102876 -3.989,-2.102876 z" />
  <g
     id="Drone">
    <path
       id="path4706"
       d="m 88.2896,32.8179 c 0,0 -17.216,15.0911 -14.813,44.9653 0,0 2.0731,3.8462 7.4101,0 0,0 -4.4475,-37.8674 25.1853,-44.9653 z"
       style="fill:#000000" />
    <path
       id="path4722"
       d="m 179.168,11.8393 h -2.489 c -3.649,0 -6.606,2.9534 -6.606,6.5965 v 4.2617 c 0,3.6431 2.957,6.5965 6.606,6.5965 h 2.489 c 3.649,0 6.607,-2.9534 6.607,-6.5965 v -4.2617 c 0,-3.6431 -2.958,-6.5965 -6.607,-6.5965 z"
       style="fill:#000000" />
    <path
       style="fill:#000000"
       d="m 181.119,7.99313 h -5.494 c -1.102,0 -1.995,0.89146 -1.995,1.99114 v 0.75203 c 0,1.0997 0.893,1.9912 1.995,1.9912 h 5.494 c 1.102,0 1.995,-0.8915 1.995,-1.9912 V 9.98427 c 0,-1.09968 -0.893,-1.99114 -1.995,-1.99114 z"
       id="path4732" />
    <path
       style="fill:#000000"
       d="m 41.2609,7.99313 h -5.4947 c -1.1014,0 -1.9942,0.89146 -1.9942,1.99114 v 0.75203 c 0,1.0997 0.8928,1.9912 1.9942,1.9912 h 5.4947 c 1.1014,0 1.9942,-0.8915 1.9942,-1.9912 V 9.98427 c 0,-1.09968 -0.8928,-1.99114 -1.9942,-1.99114 z"
       id="path4724" />
    <path
       style="fill:#000000"
       d="M 39.6111,11.8393 H 37.122 c -3.6488,0 -6.6066,2.9534 -6.6066,6.5965 v 4.2617 c 0,3.6431 2.9578,6.5965 6.6066,6.5965 h 2.4891 c 3.6488,0 6.6066,-2.9534 6.6066,-6.5965 v -4.2617 c 0,-3.6431 -2.9578,-6.5965 -6.6066,-6.5965 z"
       id="path4720" />
    <path
       style="opacity:0.2;fill:#0d262b"
       d="m 126.416,29.4086 40.687,-1.1388 c 1.588,-0.0448 3.095,-0.7056 4.203,-1.8423 1.108,-1.1368 1.728,-2.6598 1.729,-4.2457 v -1.5399 c 0,-1.5693 -0.606,-3.0779 -1.693,-4.212 -1.086,-1.134 -2.569,-1.806 -4.139,-1.876 l -40.687,-1.8193 c -0.823,-0.0367 -1.646,0.0935 -2.418,0.3828 -0.772,0.2894 -1.477,0.7319 -2.073,1.3008 -0.596,0.569 -1.07,1.2525 -1.394,2.0095 -0.325,0.757 -0.492,1.5717 -0.492,2.3949 v 4.5195 c 0.004,0.8127 0.17,1.6164 0.489,2.364 0.319,0.7476 0.785,1.4239 1.37,1.9892 0.585,0.5652 1.277,1.008 2.035,1.3022 0.759,0.2943 1.569,0.434 2.383,0.4111 z"
       id="path4718" />
    <path
       style="opacity:0.2;fill:#0d262b"
       d="M 89.5733,29.4086 48.8862,28.2698 C 47.2985,28.225 45.7907,27.5642 44.683,26.4275 43.5754,25.2907 42.9551,23.7677 42.9539,22.1818 v -1.5399 c 2e-4,-1.5693 0.6067,-3.0779 1.693,-4.212 1.0863,-1.134 2.5688,-1.806 4.1389,-1.876 l 40.6871,-1.8193 c 0.8237,-0.0367 1.6463,0.0935 2.4182,0.3828 0.7719,0.2894 1.4771,0.7319 2.0731,1.3008 0.5959,0.569 1.0703,1.2525 1.3944,2.0095 0.3241,0.757 0.4912,1.5717 0.4914,2.3949 v 4.5195 c -0.0035,0.8127 -0.1697,1.6164 -0.4889,2.364 -0.3192,0.7476 -0.7849,1.4239 -1.3698,1.9892 -0.5848,0.5652 -1.2769,1.008 -2.0356,1.3022 -0.7588,0.2943 -1.5688,0.434 -2.3824,0.4111 z"
       id="path4716" />
    <path
       style="fill:#000000"
       d="M 121.029,7.10507 H 93.1962 c -6.7152,0 -12.1588,5.43533 -12.1588,12.14023 v 4.5624 c 0,6.7048 5.4436,12.1402 12.1588,12.1402 h 27.8328 c 6.715,0 12.159,-5.4354 12.159,-12.1402 v -4.5624 c 0,-6.7049 -5.444,-12.14023 -12.159,-12.14023 z"
       id="path4710" />
    <path
       style="fill:#000000"
       d="m 127.994,32.8179 c 0,0 17.216,15.0911 14.813,44.9653 0,0 -2.073,3.8462 -7.41,0 0,0 4.447,-37.8674 -25.186,-44.9653 z"
       id="path4708" />
    <path
       id="path4714"
       d="m 126.416,29.4086 40.687,-1.1388 c 1.588,-0.0448 3.095,-0.7056 4.203,-1.8423 1.108,-1.1368 1.728,-2.6598 1.729,-4.2457 v -1.5399 c 0,-1.5693 -0.606,-3.0779 -1.693,-4.212 -1.086,-1.134 -2.569,-1.806 -4.139,-1.876 l -40.687,-1.8193 c -0.823,-0.0367 -1.646,0.0935 -2.418,0.3828 -0.772,0.2894 -1.477,0.7319 -2.073,1.3008 -0.596,0.569 -1.07,1.2525 -1.394,2.0095 -0.325,0.757 -0.492,1.5717 -0.492,2.3949 v 4.5195 c 0.004,0.8127 0.17,1.6164 0.489,2.364 0.319,0.7476 0.785,1.4239 1.37,1.9892 0.585,0.5652 1.277,1.008 2.035,1.3022 0.759,0.2943 1.569,0.434 2.383,0.4111 z"
       style="fill:#000000" />
    <path
       style="fill:#000000"
       d="m 38.7791,0 h -1.1262 c -1.652,0 -2.9913,1.33719 -2.9913,2.9867 v 4.67702 c 0,1.64951 1.3393,2.98668 2.9913,2.98668 h 1.1262 c 1.652,0 2.9913,-1.33717 2.9913,-2.98668 V 2.9867 C 41.7704,1.33719 40.4311,0 38.7791,0 Z"
       id="path4726" />
    <path
       id="path4712"
       d="M 89.5733,29.4086 48.8862,28.2698 C 47.2985,28.225 45.7907,27.5642 44.683,26.4275 43.5754,25.2907 42.9551,23.7677 42.9539,22.1818 v -1.5399 c 2e-4,-1.5693 0.6067,-3.0779 1.693,-4.212 1.0863,-1.134 2.5688,-1.806 4.1389,-1.876 l 40.6871,-1.8193 c 0.8237,-0.0367 1.6463,0.0935 2.4182,0.3828 0.7719,0.2894 1.4771,0.7319 2.0731,1.3008 0.5959,0.569 1.0703,1.2525 1.3944,2.0095 0.3241,0.757 0.4912,1.5717 0.4914,2.3949 v 4.5195 c -0.0035,0.8127 -0.1697,1.6164 -0.4889,2.364 -0.3192,0.7476 -0.7849,1.4239 -1.3698,1.9892 -0.5848,0.5652 -1.2769,1.008 -2.0356,1.3022 -0.7588,0.2943 -1.5688,0.434 -2.3824,0.4111 z"
       style="fill:#000000" />
    <path
       d="m 178.638,0 h -1.127 c -1.652,0 -2.991,1.33719 -2.991,2.9867 v 4.67702 c 0,1.64951 1.339,2.98668 2.991,2.98668 h 1.127 c 1.652,0 2.991,-1.33717 2.991,-2.98668 V 2.9867 C 181.629,1.33719 180.29,0 178.638,0 Z"
       id="path4734"
       style="display:inline;fill:#000000" />
  </g>
  <g
     style="display:inline"
     id="GreyLeft">
    <path
       style="opacity:0.2;fill:#0d262b"
       d="m 19.8486,7.99314 c 10.9621,0 19.8486,-1.19289 19.8486,-2.6644 0,-1.47151 -8.8865,-2.6644 -19.8486,-2.6644 C 8.88655,2.66434 0,3.85723 0,5.32874 c 0,1.47151 8.88655,2.6644 19.8486,2.6644 z"
       id="path4740" />
    <path
       style="opacity:0.2;fill:#0d262b"
       d="m 56.5905,7.99314 c 10.9621,0 19.8486,-1.19289 19.8486,-2.6644 0,-1.47151 -8.8865,-2.6644 -19.8486,-2.6644 -10.962,0 -19.8486,1.19289 -19.8486,2.6644 0,1.47151 8.8866,2.6644 19.8486,2.6644 z"
       id="path4742" />
  </g>
  <g
     style="display:inline"
     id="BlackLeft">
    <path
       d="m 19.8486,7.99314 c 10.9621,0 19.8486,-1.19289 19.8486,-2.6644 0,-1.47151 -8.8865,-2.6644 -19.8486,-2.6644 C 8.88655,2.66434 0,3.85723 0,5.32874 c 0,1.47151 8.88655,2.6644 19.8486,2.6644 z"
       id="path4728"
       style="display:inline;fill:#000000" />
    <path
       style="fill:#000000"
       d="m 56.5905,7.99314 c 10.9621,0 19.8486,-1.19289 19.8486,-2.6644 0,-1.47151 -8.8865,-2.6644 -19.8486,-2.6644 -10.962,0 -19.8486,1.19289 -19.8486,2.6644 0,1.47151 8.8866,2.6644 19.8486,2.6644 z"
       id="path4730" />
  </g>
  <g
     style="display:inline"
     id="GreyRight">
    <path
       style="opacity:0.2;fill:#0d262b"
       d="m 159.7,7.99314 c 10.962,0 19.849,-1.19289 19.849,-2.6644 0,-1.47151 -8.887,-2.6644 -19.849,-2.6644 -10.962,0 -19.848,1.19289 -19.848,2.6644 0,1.47151 8.886,2.6644 19.848,2.6644 z"
       id="path4744" />
    <path
       style="opacity:0.2;fill:#0d262b"
       d="m 196.442,7.99314 c 10.962,0 19.848,-1.19289 19.848,-2.6644 0,-1.47151 -8.886,-2.6644 -19.848,-2.6644 -10.962,0 -19.849,1.19289 -19.849,2.6644 0,1.47151 8.887,2.6644 19.849,2.6644 z"
       id="path4746" />
  </g>
  <g
     style="display:inline"
     id="BlackRight">
    <path
       style="fill:#000000"
       d="m 159.7,7.99314 c 10.962,0 19.849,-1.19289 19.849,-2.6644 0,-1.47151 -8.887,-2.6644 -19.849,-2.6644 -10.962,0 -19.848,1.19289 -19.848,2.6644 0,1.47151 8.886,2.6644 19.848,2.6644 z"
       id="path4736" />
    <path
       d="m 196.442,7.99314 c 10.962,0 19.848,-1.19289 19.848,-2.6644 0,-1.47151 -8.886,-2.6644 -19.848,-2.6644 -10.962,0 -19.849,1.19289 -19.849,2.6644 0,1.47151 8.887,2.6644 19.849,2.6644 z"
       id="path4738"
       style="display:inline;fill:#000000" />
  </g>
  <path
     style="display:inline;fill:#ffffff"
     id="Logo"
     d="m 116.889,27.3136 c -1.455,-4.1507 -2.933,-8.2927 -4.409,-12.4365 -0.214,-0.5976 -0.621,-0.8887 -1.277,-0.8767 -1.476,0.0274 -2.954,0.0222 -4.43,0.0017 -0.652,-0.0086 -1.035,0.2945 -1.251,0.9041 -1.463,4.1164 -2.939,8.2259 -4.393,12.3457 -0.378,1.0702 0.09,1.7209 1.212,1.7346 1.31,0.0171 2.618,0.0034 3.929,0.0034 0.393,0 0.796,0.0189 1.006,-0.4298 0.195,-0.4143 -0.069,-0.702 -0.272,-1.0051 -0.769,-1.1489 -1.235,-2.4092 -1.357,-3.803 -0.053,-0.6216 0.208,-0.9144 0.802,-0.9161 0.835,-0.0034 1.672,0 2.507,0 0,-0.0017 0,-0.0034 0,-0.0034 0.808,0 1.616,-0.012 2.423,0.0034 0.868,0.0154 1.086,0.2791 0.959,1.1729 -0.188,1.3168 -0.66,2.5205 -1.393,3.6233 -0.525,0.7928 -0.274,1.3356 0.636,1.3493 1.393,0.0239 2.787,0.0274 4.179,-0.0052 1.007,-0.0239 1.469,-0.6952 1.129,-1.6626 z m -6.924,-8.3972 c -0.399,0.4863 -0.717,0.9829 -0.859,1.6199 -0.132,0.5941 -0.5,0.6078 -0.91,0.2071 -0.713,-0.7003 -0.797,-1.9948 -0.137,-2.8869 0.37,-0.5 0.714,-0.9743 0.838,-1.6267 0.1,-0.5223 0.497,-0.5719 0.867,-0.1884 0.407,0.4178 0.631,0.9264 0.622,1.5771 0.036,0.4572 -0.112,0.9229 -0.421,1.2979 z" />
</svg>
